<?xml version="1.0" standalone="no"?><!DOCTYPE svg PUBLIC "-//W3C//DTD SVG 1.1//EN" "http://www.w3.org/Graphics/SVG/1.1/DTD/svg11.dtd"><svg t="1752924129393" class="icon" viewBox="0 0 1024 1024" version="1.1" xmlns="http://www.w3.org/2000/svg" p-id="1548" xmlns:xlink="http://www.w3.org/1999/xlink" width="256" height="256"><path d="M238.78769778 615.69251555v180.00554667c0 16.31118222 12.81592889 29.12711111 29.12711111 29.12711111s29.12711111-12.81592889 29.12711111-29.12711111v-180.00554667c0-16.31118222-12.81592889-29.12711111-29.12711111-29.1271111s-29.12711111 12.81592889-29.12711111 29.1271111z m-42.52558223-174.18012444l238.2597689-166.02453333 141.55776 154.37368889c2.33016889 2.33016889 4.66033778 4.07779555 7.57304888 5.82542222h21.55406222c2.91271111-1.16508445 5.82542222-2.33016889 8.73813334-4.07779556l249.91061333-174.76266666c14.56355555-9.90321778 18.05880889-29.70965333 8.15559111-43.69066667-9.90321778-14.56355555-29.70965333-18.05880889-44.27320888-8.15559111l-233.0168889 161.36419556-131.65454222-153.20860445c-10.48576-11.06830222-27.96202667-12.81592889-40.77795555-4.07779555-2.91271111 0.58254222-5.82542222 1.74762667-8.15559111 3.49525333l-253.98840889 174.76266667c-14.56355555 9.90321778-18.05880889 29.70965333-8.15559111 43.69066666s29.70965333 18.05880889 43.69066666 8.15559111v2.33016889z m216.70570667 51.84625778v302.33941333c0 16.31118222 12.81592889 29.12711111 29.12711111 29.12711111s29.12711111-12.81592889 29.12711112-29.12711111v-302.33941333c0-16.31118222-12.81592889-29.12711111-29.12711112-29.12711111s-29.12711111 12.81592889-29.12711111 29.12711111z m346.03008 0v302.33941333c0 16.31118222 12.81592889 29.12711111 29.12711111 29.12711111s29.12711111-12.81592889 29.12711112-29.12711111v-302.33941333c0-16.31118222-12.81592889-29.12711111-29.12711112-29.12711111s-29.12711111 12.81592889-29.12711111 29.12711111z m-172.43249777 122.33386666v180.00554667c0 16.31118222 12.81592889 29.12711111 29.1271111 29.12711111s29.12711111-12.81592889 29.12711112-29.12711111v-180.00554667c0-16.31118222-12.81592889-29.12711111-29.12711112-29.1271111s-29.12711111 12.81592889-29.1271111 29.1271111z" p-id="1549"></path><path d="M930.84785778 879.58414222H238.20515555c-64.07964445 0-116.50844445-52.4288-116.50844444-116.50844444V114.70620445c0-16.31118222-12.81592889-29.12711111-29.12711111-29.12711112s-29.12711111 12.81592889-29.12711111 29.12711112v648.36949333c0 96.70200889 78.06065778 174.76266667 174.76266666 174.76266667h692.64270223c16.31118222 0 29.12711111-12.81592889 29.12711111-29.12711112 0-15.72864-12.81592889-29.12711111-29.12711111-29.12711111z" p-id="1550"></path></svg>