<?xml version="1.0" standalone="no"?><!DOCTYPE svg PUBLIC "-//W3C//DTD SVG 1.1//EN" "http://www.w3.org/Graphics/SVG/1.1/DTD/svg11.dtd">
<svg t="1736995447859" class="icon" viewBox="0 0 1024 1024" version="1.1" xmlns="http://www.w3.org/2000/svg" p-id="1478"
     width="256" height="256"><path d="M190.57167969 107.77167969h156.6852539a117.85693359 117.85693359 0 0 1 117.8569336 117.85693359v156.68525391A117.85693359 117.85693359 0 0 1 347.2578125 500.17167969H190.57167969A117.85693359 117.85693359 0 0 1 72.71386719 382.31386719V225.62861328A117.85693359 117.85693359 0 0 1 190.57167969 107.77167969z m0 64.28583984c-29.57167969 0-53.57197266 23.99941406-53.57197266 53.57109375v156.68525391c0 29.57167969 24.00029297 53.57197266 53.57197266 53.57197265h156.6852539c29.57167969 0 53.57197266-24.00029297 53.57197266-53.57197265V225.62861328c0-29.57167969-24.00029297-53.57109375-53.57197266-53.57109375H190.57167969z m335.35722656 48.5569336l110.78613281-110.74306641a117.85693359 117.85693359 0 0 1 166.67050782 0l110.7430664 110.7a117.85693359 117.85693359 0 0 1 0 166.71445312l-110.7 110.7421875a117.85693359 117.85693359 0 0 1-166.71445312 0l-110.7421875-110.7421875a117.85693359 117.85693359 0 0 1 0-166.67138671z m45.42802734 45.47109375a53.57109375 53.57109375 0 0 0 0 75.77138671l110.78613282 110.78613282a53.57109375 53.57109375 0 0 0 75.77050781 0l110.78613281-110.78613282a53.57109375 53.57109375 0 0 0 0-75.77050781l-110.78613281-110.78613281a53.57109375 53.57109375 0 0 0-75.77050781 0l-110.78613282 110.78613281z m-380.78613281 292.80058593H347.2578125A117.85693359 117.85693359 0 0 1 465.11386719 676.7421875v156.68525391A117.85693359 117.85693359 0 0 1 347.2578125 951.28613281H190.57167969A117.85693359 117.85693359 0 0 1 72.71386719 833.42832031V676.74306641a117.85693359 117.85693359 0 0 1 117.8578125-117.8569336z m0 64.28496094c-29.57080078 0-53.57109375 24.00029297-53.57109375 53.57197266v156.6852539c0 29.57167969 24.00029297 53.57197266 53.57197266 53.57197266h156.6852539c29.57167969 0 53.57197266-24.00029297 53.57197266-53.57197266V676.74306641c0-29.57167969-24.00029297-53.57197266-53.57197266-53.57197266H190.57167969z m451.11533203-64.28496094h156.68525391A117.85693359 117.85693359 0 0 1 916.22832031 676.7421875v156.68525391a117.85693359 117.85693359 0 0 1-117.85693359 117.8578125H641.68613281a117.85693359 117.85693359 0 0 1-117.8578125-117.8578125V676.74306641a117.85693359 117.85693359 0 0 1 117.8578125-117.8569336z m0 64.28496094c-29.57167969 0-53.57197266 24.00029297-53.57197265 53.57197266v156.6852539c0 29.57167969 24.00029297 53.57197266 53.57197265 53.57197266h156.68525391c29.57167969 0 53.57109375-24.00029297 53.57109375-53.57197266V676.74306641c0-29.57167969-23.99941406-53.57197266-53.57109375-53.57197266H641.68613281z" p-id="1479"></path></svg>