<?xml version="1.0" standalone="no"?><!DOCTYPE svg PUBLIC "-//W3C//DTD SVG 1.1//EN" "http://www.w3.org/Graphics/SVG/1.1/DTD/svg11.dtd"><svg t="1725960588580" class="icon" viewBox="0 0 1024 1024" version="1.1" xmlns="http://www.w3.org/2000/svg" p-id="1240" xmlns:xlink="http://www.w3.org/1999/xlink" width="200" height="200"><path d="M689.25060779 62.95703666C877.07192889 62.95703666 997.45185223 213.56847445 997.45185223 416.26889443c0 157.29853667-142.33448334 330.53203001-422.76788224 525.18608669a110.10048 110.10048 0 0 1-125.36793998 0C168.88263111 746.80092445 26.54814777 573.56743111 26.54814777 416.26889443 26.54814777 213.56847445 146.92807111 62.95703666 334.74939221 62.95703666c67.82976 0 113.83845888 23.70218667 177.25060779 77.47811555C575.42428445 86.67136 621.42084779 62.95703666 689.25060779 62.95703666z m0 71.84687445c-47.14951111 0-79.94178333 17.28208555-133.07448889 62.62328889-2.46366777 2.09957888-16.384 14.07810333-20.41325113 17.50053888a36.77297778 36.77297778 0 0 1-47.52573554 0c-4.02924999-3.43457223-17.94958222-15.40096-20.41325113-17.50053888-53.13270557-45.34120334-85.92497778-62.62328889-133.07448889-62.62328889C191.35905223 134.80391111 99.36592555 249.4676389 99.36592555 414.9460389 99.36592555 541.12711111 228.53252779 697.7338789 491.10129778 879.30500779a36.80938667 36.80938667 0 0 0 41.79740444 0C795.46747221 697.74601443 924.63407445 541.12711111 924.63407445 414.9460389c0-165.4784-91.99312555-280.14212779-235.38346666-280.14212779z" fill="#DB3131" p-id="1241"></path></svg>