<?xml version="1.0" standalone="no"?><!DOCTYPE svg PUBLIC "-//W3C//DTD SVG 1.1//EN" "http://www.w3.org/Graphics/SVG/1.1/DTD/svg11.dtd"><svg t="1761791307807" class="icon" viewBox="0 0 1024 1024" version="1.1" xmlns="http://www.w3.org/2000/svg" p-id="1508" xmlns:xlink="http://www.w3.org/1999/xlink" width="200" height="200"><path d="M829.80914569 782.81740642c-248.93970963 0-450.75822617-201.81851653-450.75822619-450.75822617 0-99.67944691 32.3634568-191.72111803 87.12242568-266.28652247-206.09049283 41.42522469-361.30563161 223.5667595-361.3056316 441.82591209 0 248.93970963 201.81851653 450.75822617 450.75822617 450.75822618 149.26026272 0 281.6915279-72.62359703 363.6358005-184.4717037-28.99765728 5.82542222-58.77203753 8.93231408-89.45259456 8.93231407z" p-id="1509"></path><path d="M623.33029136 336.59006419c5.56651457 5.43706075 8.02613728 13.20429037 6.73159901 20.84206618l-7.76722962 45.04993185c-3.23634569 19.15916642 16.82899753 33.78744889 34.04635653 24.72568098l40.5190479-21.23042765c6.86105283-3.62470717 15.01664395-3.62470717 21.87769679 0l40.5190479 21.23042765c17.21735902 9.0617679 37.41215605-5.56651457 34.04635655-24.72568098l-7.76722962-45.04993185c-1.29453827-7.63777581 1.16508445-15.40500543 6.73159901-20.84206618l32.75181827-31.9750953c13.98101333-13.59265185 6.2137837-37.28270222-12.94538272-40.00123259l-45.30883951-6.60214519c-7.63777581-1.16508445-14.23992098-5.95487605-17.73517432-12.81592889l-20.19479703-41.0368632c-8.67340642-17.47626667-33.52854124-17.47626667-42.07249383 0L666.56786963 245.32511605c-3.3657995 6.99050667-9.96794469 11.78029827-17.73517432 12.81592889l-45.3088395 6.60214519c-19.28862025 2.84798419-26.92639605 26.40858075-12.94538272 40.00123259l32.75181827 31.84564147zM807.54308741 484.94415013l-9.70903704 19.5475279c-1.68289975 3.3657995-4.78979161 5.56651457-8.41449876 6.08432987l-21.61878914 3.10689185c-9.19122173 1.29453827-12.94538272 12.68647506-6.21378371 19.15916642l15.66391309 15.27555161c2.58907653 2.58907653 3.88361482 6.34323753 3.23634568 9.96794469l-3.754161 21.48933531c-1.55344592 9.19122173 8.02613728 16.18172839 16.31118223 11.78029827l19.41807407-10.22685235c3.23634569-1.68289975 7.1199605-1.68289975 10.48576 0l19.41807408 10.22685235c8.28504494 4.2719763 17.86462815-2.71853037 16.31118223-11.78029827l-3.75416099-21.48933531c-0.64726914-3.62470717 0.64726914-7.37886815 3.23634568-9.96794469l15.66391308-15.27555161c6.60214518-6.47269136 2.97743803-17.86462815-6.21378371-19.15916642l-21.61878912-3.10689185c-3.62470717-0.51781531-6.86105283-2.84798419-8.41449877-6.08432987l-9.70903704-19.5475279c-4.2719763-8.28504494-16.18172839-8.28504494-20.32425086 0z" p-id="1510"></path></svg>