<?xml version="1.0" standalone="no"?><!DOCTYPE svg PUBLIC "-//W3C//DTD SVG 1.1//EN" "http://www.w3.org/Graphics/SVG/1.1/DTD/svg11.dtd">
<svg t="1736995554657" class="icon" viewBox="0 0 1065 1024" version="1.1" xmlns="http://www.w3.org/2000/svg" p-id="1654"
     width="266.25" height="256"><path d="M569.75688916 536.5752875c61.12730391-46.62145722 97.48597852-122.74579951 97.40237168-203.93882754 0-136.72910127-101.48867227-248.01026484-226.22014248-248.01026572S214.7085248 195.90735869 214.7085248 332.63645997c0 84.42235547 38.66832334 159.14627753 97.4023708 203.93882753C166.32086592 594.44191074 62 748.08056445 62 927.51203604c0 18.95792959 14.14006523 34.48796396 31.42585107 34.48796396s31.4154-15.49868203 31.4154-34.48796396c0-191.16783018 142.01725518-346.86531123 316.40094317-346.86531123s316.40094316 155.7183832 316.40094316 346.86531123c0 18.95792959 14.14006523 34.48796396 31.4154 34.48796396s31.42585107-15.49868203 31.4258502-34.48796396c0.07315664-174.52999951-100.03599756-330.66641865-250.73794952-390.93674854z m-128.50424385-24.77908037c-90.18080068 0-163.37889141-80.27334932-163.3788914-179.12839483s73.1562873-179.08659141 163.3788914-179.0865914 163.37889141 80.22109482 163.37889141 179.05523907-73.52206875 179.15974805-163.37889141 179.15974716z m556.76115 290.34685371C974.44702021 668.83140372 889.93060683 554.13279599 790.63662237 507.28141953c57.13506035-47.16490342 90.63018896-120.72877559 90.49432763-198.7238294 0-125.41077862-85.46744531-231.48739511-198.89104307-246.30676875a29.54468935 29.54468935 0 0 0-23.18009238 7.0857088 34.87464756 34.87464756 0 0 0-11.69455518 22.88746758 36.42138018 36.42138018 0 0 0 6.36459698 25.29117333 30.93465849 30.93465849 0 0 0 20.97495263 12.92776084c81.99774756 10.68081768 143.58488994 87.16049121 143.58488995 177.76977891 0 81.98729648-50.58234756 153.29377442-122.85030762 173.57896758a32.39778427 32.39778427 0 0 0-6.27053907 2.43505986c-15.4150752 2.65452803-26.74384805 17.11857128-26.7124957 34.0803791 0 18.95792959 14.14006523 34.48796396 31.4258502 34.48796397 105.87804961 0 216.79343261 120.1853294 241.92784248 262.139879a34.48796396 34.48796396 0 0 0 13.1785831 21.94688672 29.34612247 29.34612247 0 0 0 23.58767725 5.22544921 31.0705207 31.0705207 0 0 0 20.48376006-14.14006523 36.28551885 36.28551885 0 0 0 4.96417675-25.82417021z m0 0" p-id="1655"></path></svg>