<?xml version="1.0" standalone="no"?><!DOCTYPE svg PUBLIC "-//W3C//DTD SVG 1.1//EN" "http://www.w3.org/Graphics/SVG/1.1/DTD/svg11.dtd"><svg t="1761791320687" class="icon" viewBox="0 0 1024 1024" version="1.1" xmlns="http://www.w3.org/2000/svg" p-id="1659" xmlns:xlink="http://www.w3.org/1999/xlink" width="200" height="200"><path d="M512 766.20024263c-139.45707747 0-254.20024263-114.74316515-254.20024263-254.20024263S372.54292253 257.79975737 512 257.79975737 766.20024263 372.54292253 766.20024263 512 651.45707747 766.20024263 512 766.20024263zM512 210.13721202c-15.88751474 0-28.2444709-12.35695616-28.2444709-28.2444709V56.55789909c0-15.88751474 12.35695616-28.2444709 28.2444709-28.24447203 15.88751474 0 28.2444709 12.35695616 28.2444709 28.24447203v125.33484203c1.76527929 14.12223545-12.35695616 28.2444709-28.2444709 28.2444709zM298.40118557 298.40118557c-10.59167687 10.59167687-30.00975133 10.59167687-40.6014282 0l-90.02925284-90.02925284c-10.59167687-10.59167687-10.59167687-30.00975133 0-40.6014282 10.59167687-10.59167687 30.00975133-10.59167687 40.6014282 0l90.02925284 90.02925284c10.59167687 10.59167687 10.59167687 28.2444709 0 40.6014282zM210.13721202 512c0 15.88751474-12.35695616 28.2444709-28.2444709 28.2444709H56.55789909c-15.88751474 0-28.2444709-12.35695616-28.24447203-28.2444709 0-15.88751474 12.35695616-28.2444709 28.24447203-28.2444709h125.33484203c14.12223545-1.76527929 28.2444709 12.35695616 28.2444709 28.2444709zM298.40118557 725.59881443c10.59167687 10.59167687 10.59167687 30.00975133 0 40.6014282l-90.02925284 90.02925284c-10.59167687 10.59167687-30.00975133 10.59167687-40.6014282 0-10.59167687-10.59167687-10.59167687-30.00975133 0-40.6014282l90.02925284-90.02925284c10.59167687-10.59167687 28.2444709-10.59167687 40.6014282 0zM512 813.86278798c15.88751474 0 28.2444709 12.35695616 28.2444709 28.2444709v125.33484203c0 15.88751474-12.35695616 28.2444709-28.2444709 28.24447203-15.88751474 0-28.2444709-12.35695616-28.2444709-28.24447203v-125.33484203c-1.76527929-14.12223545 12.35695616-28.2444709 28.2444709-28.2444709zM725.59881443 725.59881443c10.59167687-10.59167687 30.00975133-10.59167687 40.6014282 0l90.02925284 90.02925284c10.59167687 10.59167687 10.59167687 30.00975133 0 40.6014282-10.59167687 10.59167687-30.00975133 10.59167687-40.6014282 0l-90.02925284-90.02925284c-10.59167687-10.59167687-10.59167687-28.2444709 0-40.6014282zM813.86278798 512c0-15.88751474 12.35695616-28.2444709 28.2444709-28.2444709h125.33484203c15.88751474 0 28.2444709 12.35695616 28.24447203 28.2444709 0 15.88751474-12.35695616 28.2444709-28.24447203 28.2444709h-125.33484203c-14.12223545 1.76527929-28.2444709-12.35695616-28.2444709-28.2444709zM725.59881443 298.40118557c-10.59167687-10.59167687-10.59167687-30.00975133 0-40.6014282l90.02925284-90.02925284c10.59167687-10.59167687 30.00975133-10.59167687 40.6014282 0 10.59167687 10.59167687 10.59167687 30.00975133 0 40.6014282l-90.02925284 90.02925284c-10.59167687 10.59167687-28.2444709 10.59167687-40.6014282 0z" fill="#707070" p-id="1660"></path></svg>