<?xml version="1.0" standalone="no"?><!DOCTYPE svg PUBLIC "-//W3C//DTD SVG 1.1//EN" "http://www.w3.org/Graphics/SVG/1.1/DTD/svg11.dtd">
<svg t="1725960629669" class="icon" viewBox="0 0 1024 1024" version="1.1" xmlns="http://www.w3.org/2000/svg" p-id="1971"
     width="200" height="200"><path d="M561.71027006 59.08420961l108.25791967 219.27752314a55.23363335 55.23363335 0 0 0 41.7013937 30.37849854L953.86906337 343.81358775a55.23363335 55.23363335 0 0 1 30.65466626 94.4495123l-175.09061591 170.94809346a55.23363335 55.23363335 0 0 0-16.01775442 48.88176514L834.56441627 898.63543088a55.23363335 55.23363335 0 0 1-80.36493592 58.2714823L537.68363974 843.40179753a55.23363335 55.23363335 0 0 0-51.36727862 0l-216.51584192 113.78128339A55.23363335 55.23363335 0 0 1 189.4355833 898.63543088l41.4252247-241.0948077a55.23363335 55.23363335 0 0 0-16.01775312-48.88176514L39.75243894 438.26310005A55.23363335 55.23363335 0 0 1 70.13093618 343.81358775l241.92331221-35.07335646a55.23363335 55.23363335 0 0 0 41.70139371-30.37849854L462.28973079 59.08420961a55.23363335 55.23363335 0 0 1 99.42053927 0z" fill="#DB3131" p-id="1972"></path></svg>