<?xml version="1.0" standalone="no"?><!DOCTYPE svg PUBLIC "-//W3C//DTD SVG 1.1//EN" "http://www.w3.org/Graphics/SVG/1.1/DTD/svg11.dtd"><svg t="1720187998488" class="icon" viewBox="0 0 1024 1024" version="1.1" xmlns="http://www.w3.org/2000/svg" p-id="1048" xmlns:xlink="http://www.w3.org/1999/xlink" width="200" height="200"><path d="M566.140625 962c-11.86523438 0-23.5546875-4.921875-31.90429688-14.58984375L227.84960937 593.38671875C208.16210937 570.79882813 197.3515625 541.97070313 197.3515625 512c0-29.97070313 10.81054688-58.88671875 30.49804688-81.38671875L534.23632813 76.58984375c15.20507813-17.578125 41.92382813-19.51171875 59.50195312-4.30664064 17.578125 15.20507813 19.51171875 41.92382813 4.30664062 59.50195314L291.48242187 486.07226562c-12.91992188 14.765625-12.91992188 37.08984375 1e-8 51.85546876l0.17578125 0.17578125L598.1328125 892.21484375c15.20507813 17.578125 13.359375 44.296875-4.30664063 59.50195312-8.0859375 6.94335938-17.9296875 10.28320313-27.68554687 10.28320313z" fill="#969799" p-id="1049"></path><path d="M784.4609375 962c-11.86523438 0-23.5546875-4.921875-31.90429688-14.58984375L446.16992187 593.38671875c-19.6875-22.58789063-30.49804688-51.41601563-30.49804687-81.38671875 0-29.97070313 10.81054688-58.88671875 30.49804688-81.38671875L752.55664063 76.58984375c15.20507813-17.578125 41.92382813-19.51171875 59.50195312-4.30664064 17.578125 15.20507813 19.51171875 41.92382813 4.30664062 59.50195314L509.80273437 486.07226562c-12.91992188 14.765625-12.91992188 37.08984375 0 51.85546876l0.17578125 0.17578125 306.47460938 354.11132812c15.20507813 17.578125 13.359375 44.296875-4.30664063 59.50195314-7.99804688 6.94335938-17.84179689 10.28320313-27.68554687 10.28320311z" fill="#969799" p-id="1050"></path></svg>