<?xml version="1.0" standalone="no"?><!DOCTYPE svg PUBLIC "-//W3C//DTD SVG 1.1//EN" "http://www.w3.org/Graphics/SVG/1.1/DTD/svg11.dtd"><svg t="1720188028021" class="icon" viewBox="0 0 1024 1024" version="1.1" xmlns="http://www.w3.org/2000/svg" p-id="1196" xmlns:xlink="http://www.w3.org/1999/xlink" width="200" height="200"><path d="M457.859375 962c11.86523438 0 23.5546875-4.921875 31.90429688-14.58984375l306.38671874-354.0234375c19.6875-22.58789063 30.49804688-51.41601563 30.49804688-81.38671875 0-29.97070313-10.81054688-58.88671875-30.49804687-81.38671875L489.76367187 76.58984375C474.55859375 58.92382812 447.83984375 57.078125 430.26171875 72.28320312c-17.578125 15.20507813-19.51171875 41.92382813-4.30664063 59.50195313l306.56250001 354.28710938c12.91992188 14.765625 12.91992188 37.08984375-1e-8 51.85546874l-0.17578125 0.17578125-306.38671874 354.11132813c-15.20507813 17.578125-13.359375 44.296875 4.30664062 59.50195313 7.99804688 6.94335938 17.84179688 10.28320313 27.59765625 10.28320312z" fill="#969799" p-id="1197"></path><path d="M239.5390625 962c11.86523438 0 23.5546875-4.921875 31.90429688-14.58984375l306.38671874-354.0234375c19.6875-22.58789063 30.49804688-51.41601563 30.49804688-81.38671875 0-29.97070313-10.81054688-58.88671875-30.49804687-81.38671875L271.44335937 76.58984375c-15.20507813-17.578125-41.92382813-19.51171875-59.50195312-4.30664063-17.578125 15.20507813-19.51171875 41.92382813-4.30664062 59.50195313l306.56249999 354.28710938c12.91992188 14.765625 12.91992188 37.08984375 1e-8 51.85546874l-0.17578125 0.17578125-306.38671876 354.11132813c-15.20507813 17.578125-13.359375 44.296875 4.30664063 59.50195313 7.91015625 6.94335938 17.75390625 10.28320313 27.59765625 10.28320312z" fill="#969799" p-id="1198"></path></svg>