<svg xmlns="http://www.w3.org/2000/svg" width="32" height="22" viewBox="0 0 32 22"><path
		d="M28 0a4 4 0 0 1 4 4v14a4 4 0 0 1-4 4H10.4a2 2 0 0 1-1.4-.6L1 13.1c-.6-.5-.9-1.3-.9-2 0-1 .3-1.7.9-2.2L9 .6a2 2 0 0 1 1.4-.6zm0 2H10.4l-8.2 8.3a1 1 0 0 0-.3.7c0 .3.1.5.3.7l8.2 8.4H28a2 2 0 0 0 2-2V4c0-1.1-.9-2-2-2zm-5 4a1 1 0 0 1 .7.3 1 1 0 0 1 0 1.4L20.4 11l3.3 3.3c.2.2.3.5.3.7 0 .3-.1.5-.3.7a1 1 0 0 1-.7.3 1 1 0 0 1-.7-.3L19 12.4l-3.4 3.3a1 1 0 0 1-.6.3 1 1 0 0 1-.7-.3 1 1 0 0 1-.3-.7c0-.2.1-.5.3-.7l3.3-3.3-3.3-3.3A1 1 0 0 1 14 7c0-.3.1-.5.3-.7A1 1 0 0 1 15 6a1 1 0 0 1 .6.3L19 9.6l3.3-3.3A1 1 0 0 1 23 6z" fill="currentColor"></path></svg>