<?xml version="1.0" standalone="no"?><!DOCTYPE svg PUBLIC "-//W3C//DTD SVG 1.1//EN" "http://www.w3.org/Graphics/SVG/1.1/DTD/svg11.dtd">
<svg t="1754541242514" class="icon" viewBox="0 0 1024 1024" version="1.1" xmlns="http://www.w3.org/2000/svg" p-id="1744"
     width="200" height="200"><path d="M512 511.999855m-505.999857 0a505.999857 505.999857 0 1 0 1011.999714 0 505.999857 505.999857 0 1 0-1011.999714 0Z" fill="#FFFFFF" p-id="1745"></path><path d="M1022.899855 511.999855c0.3 282.39992-228.399935 511.699855-510.799855 511.999855C229.70008 1024.29971 0.400145 795.599775 0.100145 513.199855-0.099855 302.399914 129.000108 113.099968 325.300053 36.29999c119.499966-47.999986 252.999928-47.999986 372.499894 0 195.899945 76.499978 324.999908 265.299925 325.099908 475.699865M314.800056 404.199886c-1.7 80.299977 39.599989 155.399956 108.199969 197.099944 53.599985 31.199991 119.599966 31.799991 173.799951 1.599999 70.39998-41.199988 112.899968-117.199967 111.199968-198.699943 11.899997-108.699969-66.599981-206.399942-175.19995-218.299939s-206.399942 66.599981-218.299938 175.199951a194.099945 194.099945 0 0 0 0 43.099988m198.899944 585.599834c143.599959 0.1 279.599921-64.599982 369.999895-176.19995-10.299997-84.799976-92.999974-156.999956-209.999941-192.999946-92.599974 85.999976-236.299933 84.699976-327.299907-2.999999-113.799968 32.499991-197.099944 98.699972-216.699939 178.09995 89.699975 122.199965 232.399934 194.299945 383.999892 194.099945z" fill="#D7D7D7" p-id="1746"></path></svg>