<?xml version="1.0" standalone="no"?><!DOCTYPE svg PUBLIC "-//W3C//DTD SVG 1.1//EN" "http://www.w3.org/Graphics/SVG/1.1/DTD/svg11.dtd">
<svg t="1725960614738" class="icon" viewBox="0 0 1024 1024" version="1.1" xmlns="http://www.w3.org/2000/svg" p-id="1680"
     width="200" height="200"><path d="M512 83.66317669l108.25792096 219.27752313a110.46726541 110.46726541 0 0 0 82.85044938 60.48082805l242.19947993 35.3495242-175.36678496 170.67192573a110.46726541 110.46726541 0 0 0-31.75933849 98.0396993l41.14905695 241.09480771-216.51584191-113.78128468a110.46726541 110.46726541 0 0 0-102.73455723 0l-216.79200836 113.78128468 41.42522469-241.09480771a110.46726541 110.46726541 0 0 0-31.7593398-98.0396993L78.41598198 398.49488435l241.92331222-35.07335648a110.46726541 110.46726541 0 0 0 82.85044938-60.48082805L512 83.66317669m0-55.23363334a55.23363335 55.23363335 0 0 0-49.71026963 30.65466626l-108.25792096 219.27752314a55.23363335 55.23363335 0 0 1-41.70139243 30.37849854L70.13093706 343.81358775a55.23363335 55.23363335 0 0 0-30.37849854 94.4495123l175.09061593 170.94809346a55.23363335 55.23363335 0 0 1 16.01775441 48.88176514L189.43558417 898.63543088a55.23363335 55.23363335 0 0 0 55.23363206 64.89951826 56.61447331 56.61447331 0 0 0 25.95980834-6.62803596L486.31636069 843.40179753a55.23363335 55.23363335 0 0 1 51.36727862 0l216.51584063 113.78128339a56.61447331 56.61447331 0 0 0 25.95980833 6.62803594 55.23363335 55.23363335 0 0 0 55.23363206-64.89951825l-41.42522469-241.0948077a55.23363335 55.23363335 0 0 1 16.0177544-48.88176513l175.09061593-170.94809346A55.23363335 55.23363335 0 0 0 953.86906294 343.81358775l-241.9233122-35.07335646a55.23363335 55.23363335 0 0 1-41.70139243-30.37849854L561.71026963 59.08420961A55.23363335 55.23363335 0 0 0 512 28.42954335z" fill="#DB3131" p-id="1681"></path></svg>