<?xml version="1.0" standalone="no"?><!DOCTYPE svg PUBLIC "-//W3C//DTD SVG 1.1//EN" "http://www.w3.org/Graphics/SVG/1.1/DTD/svg11.dtd"><svg class="icon" viewBox="0 0 1024 1024" version="1.1" xmlns="http://www.w3.org/2000/svg" width="200" height="200"><path d="M853.333333 170.666667a85.333333 85.333333 0 0 0-85.333333-85.333334l-512 0a85.333333 85.333333 0 0 0-85.333333 85.333334L170.666667 853.333333a85.333333 85.333333 0 0 0 85.333333 85.333334l305.92 0a85.333333 85.333333 0 0 0 60.586667-25.173334L828.16 707.84A85.333333 85.333333 0 0 0 853.333333 647.253333z m-384 106.666666a21.333333 21.333333 0 0 1 21.333334-21.33333299l213.333333-1e-8a21.333333 21.333333 0 0 1 21.333333 21.333333l0 42.666667a21.333333 21.333333 0 0 1-21.333333 21.333333l-213.333333 0a21.333333 21.333333 0 0 1-21.333334-21.333333z m-170.666666 170.666667a21.333333 21.333333 0 0 1 21.333333-21.333333l384 0a21.333333 21.333333 0 0 1 21.333333 21.333333l0 42.666667a21.333333 21.333333 0 0 1-21.333333 21.333333l-384 0a21.333333 21.333333 0 0 1-21.333333-21.333333zM775.68 640L554.66666701 861.013333 554.666667 682.666667a42.666667 42.666667 0 0 1 42.666666-42.666667z"></path></svg>