<?xml version="1.0" standalone="no"?><!DOCTYPE svg PUBLIC "-//W3C//DTD SVG 1.1//EN" "http://www.w3.org/Graphics/SVG/1.1/DTD/svg11.dtd"><svg t="1720700949592" class="icon" viewBox="0 0 1024 1024" version="1.1" xmlns="http://www.w3.org/2000/svg" p-id="1010" xmlns:xlink="http://www.w3.org/1999/xlink" width="200" height="200"><path d="M816.91015625 262.51367188L262.56640625 816.91015625c-15.34570311 15.29296875-40.18359375 15.29296875-55.4765625 0s-15.29296875-40.13085938 0-55.4765625L761.43359375 207.08984375c15.34570311-15.29296875 40.18359375-15.29296875 55.4765625 0 15.29296875 15.29296875 15.29296875 40.13085938 0 55.42382813z" fill="" p-id="1011"></path><path d="M816.91015625 816.91015625c-15.29296875 15.29296875-40.13085938 15.29296875-55.4765625 0L207.08984375 262.51367188c-15.29296875-15.34570311-15.29296875-40.13085938 0-55.42382813 15.29296875-15.29296875 40.13085938-15.29296875 55.4765625 0L816.91015625 761.43359375c15.29296875 15.34570311 15.29296875 40.18359375 0 55.4765625z" fill="" p-id="1012"></path></svg>